<?xml version="1.0" standalone="no"?><svg xmlns="http://www.w3.org/2000/svg" viewBox="0 0 1440 320"><path fill="#04535a" fill-opacity="1" d="M0,96L48,85.3C96,75,192,53,288,80C384,107,480,181,576,202.7C672,224,768,192,864,176C960,160,1056,160,1152,176C1248,192,1344,224,1392,240L1440,256L1440,320L1392,320C1344,320,1248,320,1152,320C1056,320,960,320,864,320C768,320,672,320,576,320C480,320,384,320,288,320C192,320,96,320,48,320L0,320Z" data-darkreader-inline-fill="" style="--darkreader-inline-fill: var(--darkreader-background-04535a, #034248);"></path></svg>